<svg width="681" height="147" viewBox="0 0 681 147" fill="none" xmlns="http://www.w3.org/2000/svg">
<g clip-path="url(#clip0)">
<path d="M61.784 0.366211L0.337891 32.8618L61.784 65.3574L123.23 32.8618L61.784 0.366211Z" fill="url(#paint0_linear)"/>
<path d="M61.7852 65.3579V146.596L123.231 114.101V32.8623L61.7852 65.3579Z" fill="#BD1522"/>
<path d="M61.7841 65.3579V146.596L0.337891 114.101V32.8623L61.7841 65.3579Z" fill="#E84D0D"/>
<path d="M61.784 0.408203L0.337891 32.9037V114.142L61.784 146.638L123.23 114.142V32.9037L61.784 0.408203Z" stroke="#4D4D4D"/>
<path d="M61.6152 146.634V65.252" stroke="black"/>
<path d="M0.414062 32.8271L61.8604 65.0864" stroke="black"/>
<path d="M61.7109 65.0864L123.157 32.8271" stroke="black"/>
<path d="M416.625 111.905V35.8906H469.812C473.722 35.8906 477.114 37.4391 479.979 40.536C482.848 43.5625 484.284 47.2225 484.284 51.5159V65.7687C484.284 66.6837 484.216 67.5634 484.087 68.4081C484.022 69.1823 483.859 69.9213 483.598 70.6252C484.576 71.9625 485.39 73.5109 486.042 75.2705C486.694 77.0301 487.02 78.7897 487.02 80.5493V96.2802C487.02 100.574 485.587 104.269 482.719 107.366C479.85 110.392 476.428 111.905 472.453 111.905H416.625ZM435.005 95.4355H468.443C470.596 95.4355 471.669 95.4355 471.669 95.4355C471.669 95.4355 471.669 94.2742 471.669 91.9515V84.9835C471.669 82.6608 471.669 81.4995 471.669 81.4995C471.669 81.4995 470.596 81.4995 468.443 81.4995H435.005C432.856 81.4995 431.779 81.4995 431.779 81.4995C431.779 81.4995 431.779 82.6608 431.779 84.9835V91.9515C431.779 94.2742 431.779 95.4355 431.779 95.4355C431.779 95.4355 432.856 95.4355 435.005 95.4355ZM435.005 65.0296H465.707C467.856 65.0296 468.932 65.0296 468.932 65.0296C468.932 65.0296 468.932 63.8683 468.932 61.5456V55.8445C468.932 53.5218 468.932 52.3605 468.932 52.3605C468.932 52.3605 467.856 52.3605 465.707 52.3605H435.005C432.856 52.3605 431.779 52.3605 431.779 52.3605C431.779 52.3605 431.779 53.5218 431.779 55.8445V61.5456C431.779 63.8683 431.779 65.0296 431.779 65.0296C431.779 65.0296 432.856 65.0296 435.005 65.0296ZM511.955 111.905C507.979 111.905 504.558 110.392 501.689 107.366C498.885 104.269 497.486 100.574 497.486 96.2802V51.5159C497.486 47.2225 498.885 43.5625 501.689 40.536C504.558 37.4391 507.979 35.8906 511.955 35.8906H553.409C557.32 35.8906 560.711 37.4391 563.576 40.536C566.445 43.5625 567.881 47.2225 567.881 51.5159V96.2802C567.881 100.574 566.445 104.269 563.576 107.366C560.711 110.392 557.32 111.905 553.409 111.905H511.955ZM515.866 95.4355H549.305C551.454 95.4355 552.53 95.4355 552.53 95.4355C552.53 95.4355 552.53 94.2742 552.53 91.9515V55.8445C552.53 53.5218 552.53 52.3605 552.53 52.3605C552.53 52.3605 551.454 52.3605 549.305 52.3605H515.866C513.713 52.3605 512.641 52.3605 512.641 52.3605C512.641 52.3605 512.641 53.5218 512.641 55.8445V91.9515C512.641 94.2742 512.641 95.4355 512.641 95.4355C512.641 95.4355 513.713 95.4355 515.866 95.4355ZM574.613 111.905V106.31L599.741 73.898L574.613 41.4862V35.8906H590.355L609.909 60.9122L629.266 35.8906H645.008V41.4862L619.784 73.898L645.008 106.204V111.905H629.266L609.712 86.9895L590.355 111.905H574.613Z" fill="#BD1522"/>
<path d="M185.255 111.905V44.4423H153.969V35.8906H224.364V44.4423H193.175V111.905H185.255ZM231.773 111.905V35.8906H239.693V69.5694H295.911V35.8906H303.928V111.905H295.911V78.2266H239.693V111.905H231.773ZM315.034 111.905V35.8906H379.269V44.4423H322.953V69.5694H368.222V78.2266H322.953V103.354H379.269V111.905H315.034Z" fill="#E84D0D"/>
</g>
<defs>
<linearGradient id="paint0_linear" x1="61.784" y1="0.366211" x2="61.784" y2="65.3574" gradientUnits="userSpaceOnUse">
<stop stop-color="#E84D0D"/>
<stop offset="0.739583" stop-color="#BD1522"/>
<stop offset="1" stop-color="#BD1522"/>
</linearGradient>
<clipPath id="clip0">
<rect width="681" height="147" fill="white"/>
</clipPath>
</defs>
</svg>
